<svg width="93" height="95" viewBox="0 0 93 95" fill="none" xmlns="http://www.w3.org/2000/svg">
<path d="M21.4343 43.6471C21.4343 39.517 24.8041 36.1805 28.934 36.2213L65.4153 36.5825C68.9429 36.6175 71.7048 39.6297 71.4342 43.1471V43.1471L71.9342 54.8731L72.2244 65.1866C72.3498 69.6458 69.6182 73.6886 65.4342 75.2361V75.2361L59.8882 76.5615L53.7714 77.1633L47.792 77.4335L42.3182 77.495L38.5921 77.3845L33.8072 77.0549C33.195 77.0127 32.587 76.9237 31.9884 76.7885L29.4175 76.2079C27.7853 75.8393 26.264 75.0885 24.9785 74.0173L24.8804 73.9355C24.2523 73.4121 23.6937 72.8103 23.2184 72.1449V72.1449C22.058 70.5204 21.4341 68.5738 21.4341 66.5774L21.4341 51.9342L21.4343 43.6471V43.6471Z" fill="#B36B3F"/>
<path d="M54.0141 33.1183L49.1155 62.6696L21.6444 46.057C20.2207 45.196 18.9705 44.0765 17.9582 42.7562L17.7596 42.4972C17.3442 41.9554 16.9846 41.3729 16.6863 40.7586V40.7586C16.0097 39.3655 15.6616 37.8358 15.6686 36.2871L15.6718 35.5816C15.68 33.7722 16.061 31.9839 16.7911 30.3282L17.0405 29.7627C17.4086 28.9279 17.8487 28.1266 18.3557 27.368L18.7873 26.7221C19.5925 25.5172 20.616 24.4736 21.8049 23.6449V23.6449C22.9982 22.8133 24.3369 22.213 25.7516 21.8753L26.7589 21.6348C28.084 21.3185 29.4422 21.1617 30.8046 21.1679L30.9951 21.1687C33.3481 21.1794 35.678 21.6346 37.8621 22.5103L40.8006 23.6887L44.6108 25.7626C46.6662 26.8814 48.5836 28.2368 50.3239 29.8012L54.0141 33.1183Z" fill="#B36B3F"/>
<path d="M37.8775 33.1917L43.2711 62.6566L69.9721 46.8375C71.9404 45.6714 73.5233 43.9535 74.5248 41.8966V41.8966C74.7714 41.3901 74.9811 40.8664 75.1522 40.3296L75.1964 40.1911C75.7521 38.4479 75.9531 36.6111 75.7875 34.789L75.7797 34.7037C75.6203 32.9499 75.1343 31.2414 74.3467 29.6663L73.5386 28.0498L72.6125 26.6609C71.9024 25.5957 71.0045 24.6685 69.9628 23.9244V23.9244C68.6955 23.0192 67.2439 22.4054 65.7117 22.1268L62.5384 21.5498V21.5498C58.9939 21.1457 55.405 21.6599 52.1165 23.043L50.931 23.5417L47.156 25.6793C45.1197 26.8324 43.2253 28.2197 41.5115 29.8131L37.8775 33.1917Z" fill="#B36B3F"/>
<path d="M24.0384 44.451C24.0384 41.1761 26.6639 38.4911 29.9379 38.4178L62.4406 37.6905C65.7307 37.6168 68.4511 40.2072 68.5381 43.4966L69.1411 66.2997C69.1595 66.9943 69.057 67.6875 68.8384 68.3484L68.7837 68.5135C68.3977 69.6803 67.664 70.7027 66.6815 71.4429L66.622 71.4878C66.3575 71.6871 66.0771 71.8642 65.7838 72.0175L64.3793 72.7514C63.7791 73.0651 63.1307 73.2754 62.4617 73.3735L58.5234 73.9506L52.9414 74.5161L47.485 74.7858L42.4901 74.8674L39.0902 74.7873L33.8851 74.4657L31.3019 74.1198C30.4689 74.0083 29.6697 73.7227 28.9561 73.2816L26.9861 72.0639C26.6882 71.8798 26.4073 71.6698 26.1464 71.4364L26.0232 71.3261C24.7598 70.1954 24.0385 68.579 24.0385 66.8785L24.0384 44.451Z" fill="#F5E9C5"/>
<path d="M51.6103 35.0712L47.2522 59.8394L23.6371 44.7859C22.4287 44.0156 21.3682 43.0338 20.5065 41.8875L20.3154 41.6334C19.9691 41.1728 19.6691 40.679 19.4196 40.1592V40.1592C18.8386 38.9484 18.5434 37.6202 18.557 36.2774L18.5621 35.7741C18.5778 34.223 18.9237 32.6934 19.5767 31.2877L19.7666 30.8788C20.0891 30.1845 20.4739 29.521 20.9161 28.8965L21.2653 28.4035C21.9793 27.3954 22.8816 26.5358 23.9223 25.8721V25.8721C24.941 25.2225 26.0735 24.7726 27.26 24.5462L28.2073 24.3654C29.3327 24.1506 30.4795 24.0694 31.6241 24.1235L31.8562 24.1345C33.8691 24.2296 35.8481 24.692 37.6961 25.499L40.2692 26.6226L43.2753 28.3597C45.2191 29.483 47.0312 30.8212 48.6776 32.3492L51.6103 35.0712Z" fill="#F5E9C5"/>
<path d="M38.6155 36.9826L44.1981 61.79L67.6735 44.7456C68.865 43.8805 69.8974 42.8119 70.7237 41.5885L70.9206 41.2969C71.2481 40.8121 71.528 40.2965 71.7565 39.7574V39.7574C72.2984 38.4788 72.5406 37.0925 72.4643 35.7062L72.4397 35.2604C72.3522 33.6708 71.9211 32.1209 71.1767 30.719L70.9858 30.3595C70.6233 29.6769 70.1983 29.0301 69.7161 28.4275L69.3566 27.9781C68.5695 26.9944 67.596 26.1784 66.4926 25.5775V25.5775C65.4313 24.9996 64.2696 24.6315 63.07 24.4929L62.0387 24.3737C60.8906 24.241 59.7307 24.2437 58.5824 24.3815L58.3002 24.4153C56.2561 24.6606 54.2706 25.271 52.4368 26.2177L49.8272 27.5649L46.6558 29.6688C44.8365 30.8757 43.1528 32.2786 41.6345 33.8527L38.6155 36.9826Z" fill="#F5E9C5"/>
<line x1="3" y1="-3" x2="13.5849" y2="-3" transform="matrix(0.706453 0.70776 -0.660853 0.750515 31.1251 50.6878)" stroke="#76F3A5" stroke-width="6" stroke-linecap="round"/>
<line x1="3" y1="-3" x2="26.8811" y2="-3" transform="matrix(-0.683941 0.729537 -0.683941 -0.729537 60.2085 37.2728)" stroke="#76F3A5" stroke-width="6" stroke-linecap="round"/>
</svg>
