<svg width="178" height="182" viewBox="0 0 178 182" fill="none" xmlns="http://www.w3.org/2000/svg">
<ellipse cx="89" cy="91" rx="89" ry="91" fill="#EEEEEE"/>
<path d="M140 152C140 143.07 138.694 134.228 136.156 125.978C133.618 117.727 129.898 110.231 125.209 103.917C120.52 97.6024 114.952 92.5935 108.826 89.1762C102.699 85.7589 96.1318 84 89.5 84C82.8682 84 76.3014 85.7589 70.1745 89.1762C64.0475 92.5935 58.4805 97.6024 53.7911 103.917C49.1017 110.231 45.3819 117.727 42.8441 125.978C40.3062 134.228 39 143.07 39 152L89.5 152H140Z" fill="#C4C4C4"/>
<ellipse cx="89.5" cy="55.5" rx="30.5" ry="28.5" fill="#C4C4C4"/>
</svg>
