<svg width="354" height="354" viewBox="0 0 354 354" fill="none" xmlns="http://www.w3.org/2000/svg">
<g clip-path="url(#clip0)">
<path d="M77.8364 50.8322H42.0389V74.7196H77.8364V50.8322Z" fill="#95D4E4"/>
<path d="M85.2199 48.2028C85.2199 50.1615 83.618 51.7642 81.6592 51.7642H38.2161C36.2573 51.7642 34.6553 50.1615 34.6553 48.2028V22.5329C34.6553 20.5742 36.2573 18.9715 38.2161 18.9715H81.6585C83.6173 18.9715 85.2193 20.5742 85.2193 22.5329L85.2199 48.2028Z" fill="#44B3CF"/>
<g opacity="0.1">
<path opacity="0.1" d="M49.5088 48.2028V22.5329C49.5088 20.5742 51.1108 18.9715 53.0703 18.9715H38.2161C36.2573 18.9715 34.6553 20.5742 34.6553 22.5329V48.2028C34.6553 50.1615 36.2573 51.7642 38.2161 51.7642H53.0703C51.1115 51.7642 49.5088 50.1615 49.5088 48.2028Z" fill="black"/>
</g>
<path d="M30.9418 244.469C31.125 244.393 31.2675 244.243 31.3318 244.055C31.3968 243.868 31.3774 243.662 31.2806 243.49C30.984 242.966 30.834 242.451 30.834 241.96C30.834 238.149 39.2892 234.069 51.8776 234.069C55.9286 234.069 59.8751 234.519 63.2906 235.371C63.346 235.385 63.402 235.392 63.458 235.392C63.6391 235.392 63.8154 235.321 63.9468 235.189C64.119 235.017 64.1881 234.768 64.1286 234.533C61.932 225.766 60.6744 216.754 60.3791 207.546C60.375 207.438 60.3681 207.331 60.3646 207.223C60.3252 205.909 60.3045 204.591 60.3045 203.269C60.3045 201.674 61.5981 200.377 63.189 200.377H69.4359C69.6322 200.377 69.8203 200.293 69.951 200.147C70.0816 200 70.1446 199.805 70.1231 199.609C70.0208 198.693 69.9731 197.927 69.9731 197.199C69.9731 187.458 76.2027 178.949 85.4751 176.028C85.6659 175.968 85.8215 175.827 85.901 175.643C85.9812 175.46 85.9771 175.25 85.89 175.07C85.0478 173.313 84.4574 171.476 84.1338 169.612C82.5187 160.291 87.3951 151.011 95.9914 147.045C96.3164 146.895 96.4733 146.521 96.353 146.184C95.9492 145.054 95.6436 143.894 95.4431 142.735C94.1322 135.172 97.09 127.838 102.569 123.193V93.5009C102.569 82.5698 93.6461 73.6265 82.7392 73.6265H37.1347C26.2292 73.6265 17.3059 82.5698 17.3059 93.5009V252.716C21.2794 249.367 25.86 246.562 30.9418 244.469Z" fill="#95D4E4"/>
<path d="M85.4758 176.027C85.6666 175.966 85.8222 175.826 85.9017 175.642C85.9819 175.458 85.9777 175.249 85.8906 175.068C85.0485 173.311 84.458 171.475 84.1345 169.611C82.5193 160.29 87.3958 151.01 95.9921 147.043C96.317 146.893 96.474 146.52 96.3537 146.183C95.9499 145.053 95.6443 143.893 95.4438 142.733C94.1329 135.171 97.0907 127.836 102.569 123.192V109.823H17.3059V183.39H74.7749C77.4569 180.009 81.1248 177.398 85.4758 176.027Z" fill="#2CAACA"/>
<path opacity="0.1" d="M38.7188 235.848V93.5003C38.7188 82.5691 47.6414 73.6258 58.5476 73.6258H37.1347C26.2292 73.6258 17.3059 82.5691 17.3059 93.5003V252.716C21.2794 249.367 25.86 246.563 30.9418 244.469C31.125 244.393 31.2675 244.243 31.3318 244.055C31.3968 243.868 31.3774 243.662 31.2806 243.49C30.984 242.966 30.834 242.451 30.834 241.96C30.8347 239.72 33.7586 237.391 38.7188 235.848Z" fill="black"/>
<path d="M167.694 130.156C167.893 131.309 167.996 132.505 167.999 133.712C167.999 134.07 168.272 134.368 168.629 134.4C177.48 135.178 184.88 141.482 187.045 150.09C187.105 150.327 187.286 150.515 187.52 150.584C187.585 150.603 187.65 150.612 187.716 150.612C187.889 150.612 188.058 150.547 188.188 150.426C191.794 147.063 196.282 145.041 201.167 144.581C201.513 144.548 201.782 144.263 201.792 143.915C202.107 134.219 206.049 125.102 212.894 118.242C213.037 118.099 213.187 117.966 213.332 117.825C211.818 108.171 207.369 98.8946 199.963 91.4717C198.506 90.0128 196.145 90.0121 194.686 91.4717L164.336 121.891C165.993 124.307 167.164 127.103 167.694 130.156Z" fill="#FA7C92"/>
<path d="M187.045 150.09C187.104 150.327 187.285 150.515 187.52 150.584C187.585 150.603 187.65 150.612 187.715 150.612C187.888 150.612 188.057 150.547 188.187 150.426C189.949 148.783 191.923 147.466 194.05 146.489C193.812 145.696 193.381 144.948 192.756 144.32L187.722 139.273C185.7 137.246 182.416 137.241 180.389 139.264C180.373 139.279 180.362 139.295 180.347 139.31C183.572 142.06 185.963 145.787 187.045 150.09Z" fill="#CC4F54"/>
<path d="M197.829 134.741H190.71C187.845 134.741 185.524 132.419 185.524 129.555C185.524 126.691 187.845 124.369 190.71 124.369H197.829C200.693 124.369 203.014 126.691 203.014 129.555C203.014 132.419 200.693 134.741 197.829 134.741Z" fill="#CC4F54"/>
<path d="M189.705 120.415C188.38 120.415 187.054 119.91 186.042 118.9C184.015 116.877 184.012 113.593 186.035 111.566L191.071 106.52C193.094 104.494 196.377 104.49 198.404 106.513C200.431 108.536 200.434 111.82 198.411 113.847L193.375 118.893C192.363 119.906 191.034 120.415 189.705 120.415Z" fill="#CC4F54"/>
<path d="M254.717 109.838C254.656 109.68 254.561 109.539 254.444 109.421C254.326 109.302 254.185 109.208 254.027 109.146C239.666 103.426 223.328 106.805 212.403 117.753C205.146 125.027 201.228 134.696 201.084 144.588C201.802 144.517 202.53 144.479 203.266 144.479C214.02 144.479 223.003 152.202 224.997 162.404C232.839 161.127 240.265 157.435 246.13 151.556C257.054 140.606 260.424 124.232 254.717 109.838Z" fill="#76F3A5"/>
<path d="M236.086 127.821C234.059 125.798 230.776 125.801 228.753 127.829L210.815 145.808C214.201 147.042 217.203 149.082 219.592 151.695L236.095 135.154C238.118 133.127 238.114 129.843 236.086 127.821Z" fill="#50B375" style="mix-blend-mode:darken"/>
<path d="M262.164 169.224C262.344 170.27 262.437 171.346 262.438 172.425C262.439 172.783 262.712 173.081 263.068 173.113C265.875 173.36 268.551 174.23 271.021 175.698C271.131 175.764 271.253 175.796 271.374 175.796C271.568 175.796 271.76 175.714 271.896 175.558C272.485 174.883 272.991 174.336 273.489 173.838C277.662 169.655 282.708 166.669 288.211 165.041C288.728 163.13 289.008 161.123 289.008 159.048C289.008 146.407 278.783 136.158 266.17 136.158C255.413 136.158 246.398 143.615 243.977 153.651C252.995 153.807 260.617 160.301 262.164 169.224Z" fill="#EEE28C"/>
<path d="M105.653 199.879C103.338 195.776 101.872 191.275 101.312 186.644C94.5733 185.542 88.8526 181.227 85.9218 175.168C76.3223 177.877 69.2831 186.71 69.2831 197.197C69.2831 198.106 69.3522 198.998 69.4552 199.879H105.653V199.879Z" fill="#D1BE3A"/>
<path d="M279.946 188.627C280.614 192.48 280.083 196.361 278.414 199.879H307.76C314.69 190.147 316.365 177.446 311.859 166.079C311.802 165.935 311.716 165.805 311.608 165.696C311.499 165.588 311.369 165.501 311.225 165.444C298.036 160.191 283.032 163.294 272.999 173.349C272.266 174.084 271.581 174.851 270.923 175.637C275.58 178.372 278.98 183.049 279.946 188.627Z" fill="#76F3A5"/>
<path d="M278.414 199.879H284.827L295.055 189.629C297.078 187.601 297.074 184.318 295.046 182.295C293.019 180.272 289.735 180.276 287.713 182.304L280.119 189.915C280.476 193.339 279.897 196.753 278.414 199.879Z" fill="#43A768"/>
<path d="M187.839 150.49C185.759 141.177 177.875 134.517 168.69 133.71C168.688 132.498 168.59 131.271 168.375 130.037C166.338 118.286 155.147 110.418 143.379 112.467C137.27 113.53 132.214 117.06 129.039 121.846C124.442 118.412 118.492 116.799 112.384 117.862C100.614 119.911 92.7259 131.1 94.7641 142.851C94.9771 144.085 95.2965 145.274 95.7037 146.415C87.0197 150.422 81.7463 159.874 83.4541 169.728C85.0678 179.044 92.4375 185.911 101.286 187.34C100.429 181.399 101.117 175.268 103.413 169.476C103.435 169.419 103.468 169.37 103.512 169.325C103.554 169.283 103.605 169.25 103.661 169.227C107.781 167.586 112.11 166.754 116.528 166.754C125.821 166.754 134.563 170.385 141.142 176.978C141.617 177.456 142.074 177.949 142.518 178.449C142.15 176.065 141.96 173.638 141.96 171.179C141.96 169.499 143.322 168.132 144.998 168.132H181.202C181.171 167.651 181.148 167.167 181.148 166.677C181.148 160.356 183.705 154.633 187.839 150.49Z" fill="#2CBF63"/>
<path d="M112.115 152.515C112.085 152.515 112.055 152.515 112.025 152.515C109.161 152.466 106.88 150.106 106.928 147.242C107.08 138.264 114.444 131.057 123.397 131.057C123.485 131.057 123.572 131.058 123.661 131.06C128.172 131.129 132.505 133.08 135.547 136.412C137.479 138.527 137.33 141.807 135.216 143.738C133.101 145.67 129.821 145.521 127.889 143.407C126.75 142.158 125.19 141.456 123.498 141.43C120.128 141.375 117.354 144.063 117.297 147.418C117.25 150.251 114.937 152.515 112.115 152.515Z" fill="#79DD9E"/>
<path d="M140.742 161.438C140.143 161.438 139.534 161.333 138.94 161.113C136.255 160.117 134.885 157.133 135.881 154.448C138.774 146.649 147.476 142.647 155.284 145.527C159.167 146.961 162.322 149.968 163.941 153.778C165.061 156.413 163.833 159.458 161.197 160.578C158.562 161.699 155.517 160.471 154.396 157.834C153.882 156.626 152.922 155.711 151.692 155.257C149.24 154.352 146.512 155.608 145.605 158.054C144.83 160.145 142.848 161.438 140.742 161.438Z" fill="#79DD9E"/>
<path d="M225.367 168.076H225.177C225.176 168.124 225.176 168.173 225.174 168.222H232.12C234.181 168.222 235.85 169.896 235.85 171.96C235.85 182.38 232.487 192.014 226.823 199.879H279.159C280.724 196.436 281.321 192.512 280.627 188.508C279.085 179.609 271.731 173.179 263.129 172.424C263.128 171.329 263.037 170.22 262.845 169.106C261.005 158.492 250.897 151.386 240.268 153.236C234.751 154.198 230.183 157.385 227.316 161.71C226.386 161.015 225.392 160.411 224.352 159.891C225.039 162.032 225.414 164.311 225.414 166.678C225.414 167.134 225.398 167.596 225.367 168.076Z" fill="#4EC47A"/>
<path d="M226.05 168.132C226.082 167.651 226.105 167.167 226.105 166.677C226.105 154.035 215.88 143.787 203.267 143.787C190.654 143.787 180.429 154.036 180.429 166.677C180.429 167.167 180.452 167.651 180.483 168.132H226.05Z" fill="#EFE38C"/>
<path d="M141.631 176.49C131.598 166.436 116.594 163.333 103.405 168.586C103.26 168.644 103.131 168.73 103.022 168.838C102.914 168.947 102.827 169.076 102.77 169.222C98.7349 179.401 99.6586 190.649 104.869 199.879H151.94C147.172 193.528 143.94 185.959 142.805 177.725C142.425 177.306 142.034 176.894 141.631 176.49Z" fill="#86E4AA"/>
<path d="M126.667 199.879H141.317L126.916 185.446C124.893 183.419 121.611 183.414 119.583 185.437C117.555 187.46 117.551 190.743 119.574 192.77L126.667 199.879Z" fill="#55DA87"/>
<path d="M227.173 199.879C233.18 191.876 236.762 181.944 236.762 171.179C236.762 169.115 235.093 167.441 233.032 167.441H144.998C142.936 167.441 141.268 169.115 141.268 171.179C141.268 181.944 144.85 191.876 150.859 199.879H227.173Z" fill="#FA7C92"/>
<path d="M194.389 199.879V196.292C194.389 193.429 192.068 191.107 189.203 191.107C186.339 191.107 184.018 193.429 184.018 196.292V199.879H194.389Z" fill="#CA4C62"/>
<path d="M204.338 199.879H212.401C214.07 197.845 213.956 194.837 212.058 192.934L207.024 187.888C205.002 185.861 201.719 185.856 199.691 187.879C197.663 189.902 197.66 193.185 199.682 195.212L204.338 199.879Z" fill="#CA4C62"/>
<path d="M173.252 199.879L177.906 195.214C179.93 193.186 179.926 189.903 177.899 187.881C175.872 185.858 172.588 185.861 170.565 187.888L165.53 192.934C163.632 194.836 163.518 197.844 165.186 199.879L173.252 199.879Z" fill="#CA4C62"/>
<path d="M165.279 185.895H158.159C155.295 185.895 152.974 183.573 152.974 180.709C152.974 177.846 155.295 175.524 158.159 175.524H165.279C168.144 175.524 170.465 177.846 170.465 180.709C170.465 183.573 168.143 185.895 165.279 185.895Z" fill="#CA4C62"/>
<path d="M219.871 185.895H212.751C209.887 185.895 207.565 183.573 207.565 180.709C207.565 177.846 209.887 175.524 212.751 175.524H219.871C222.736 175.524 225.057 177.846 225.057 180.709C225.057 183.573 222.735 185.895 219.871 185.895Z" fill="#CA4C62"/>
<path d="M64.2869 235.634C64.3492 235.651 64.4121 235.66 64.4743 235.66C64.6236 235.66 64.7702 235.612 64.8919 235.52C65.0648 235.389 65.1657 235.185 65.1657 234.969V226.193C65.1657 223.715 67.1818 221.699 69.6598 221.699C72.1378 221.699 74.154 223.715 74.154 226.193V234.969C74.154 235.185 74.2549 235.389 74.4278 235.52C74.5495 235.612 74.696 235.66 74.8454 235.66C74.9083 235.66 74.9712 235.652 75.0328 235.634C78.6703 234.609 82.9618 234.067 87.4414 234.067C100.028 234.067 108.484 238.147 108.484 241.958C108.484 242.451 108.334 242.966 108.038 243.49C107.94 243.662 107.921 243.869 107.986 244.056C108.051 244.243 108.193 244.394 108.376 244.47C124.492 251.113 135.912 265.204 138.18 281.244C138.21 281.452 138.332 281.635 138.513 281.743C138.621 281.806 138.742 281.839 138.865 281.839C138.948 281.839 139.031 281.823 139.11 281.794L248.266 240.326C250.378 239.524 252.595 239.117 254.854 239.117C258.02 239.117 261.152 239.934 263.911 241.478C268.709 244.163 272.034 248.795 273.034 254.184L273.984 259.318C274.026 259.54 274.172 259.728 274.378 259.821C274.469 259.863 274.566 259.884 274.664 259.884C274.786 259.884 274.908 259.852 275.016 259.788L311.716 238.123C314.869 226.886 316.468 215.234 316.468 203.267C316.468 201.288 314.866 199.684 312.892 199.684H63.1897C61.215 199.684 59.6137 201.288 59.6137 203.267C59.6137 214.295 60.9772 225.055 63.6564 235.47C63.8659 235.525 64.0816 235.576 64.2869 235.634Z" fill="#C4C4C4"/>
<path opacity="0.1" d="M64.2869 235.634C64.3492 235.651 64.4121 235.66 64.4743 235.66C64.6236 235.66 64.7702 235.612 64.8919 235.52C65.0648 235.389 65.1657 235.185 65.1657 234.969V226.193C65.1657 223.715 67.1818 221.699 69.6598 221.699C72.1378 221.699 74.154 223.715 74.154 226.193V234.969C74.154 235.185 74.2549 235.389 74.4278 235.52C74.5495 235.612 74.696 235.66 74.8454 235.66C74.9083 235.66 74.9712 235.652 75.0328 235.634C78.1462 234.757 81.7408 234.237 85.5207 234.105C83.0704 224.115 81.8293 213.813 81.8293 203.267C81.8293 201.288 83.4299 199.684 85.4052 199.684H63.1897C61.215 199.684 59.6137 201.288 59.6137 203.267C59.6137 214.295 60.9772 225.055 63.6564 235.47C63.8659 235.525 64.0816 235.576 64.2869 235.634Z" fill="black"/>
<path d="M69.6592 238.102C71.0793 237.304 72.8383 236.61 74.8461 236.043V226.192C74.8461 223.328 72.5251 221.007 69.6606 221.007C66.7961 221.007 64.475 223.328 64.475 226.192V236.043C66.4829 236.609 68.2397 237.304 69.6592 238.102Z" fill="#48B771"/>
<path d="M122.634 334.329L103.905 334.337H103.898C94.9826 334.336 87.3377 328 85.7212 319.27L85.5366 318.277C83.9194 309.545 88.7938 300.909 97.1274 297.742L138.966 281.848C136.812 264.616 124.668 250.183 107.993 243.562C106.375 246.281 100.804 248.648 93.5493 249.499C93.2728 249.532 93.0418 249.728 92.9651 249.996C92.8884 250.264 92.9796 250.552 93.1974 250.726C96.9573 253.734 99.3191 256.904 99.5162 259.209C99.5881 260.044 99.3827 260.722 98.8877 261.28C98.0061 262.276 96.2721 262.802 93.8743 262.802C93.8743 262.802 93.8743 262.802 93.8736 262.802C89.2052 262.802 82.8927 260.85 76.9867 257.581C74.3856 256.14 72.0715 254.565 70.1058 252.9C69.9765 252.791 69.8175 252.736 69.6592 252.736C69.5002 252.736 69.3411 252.791 69.2125 252.9C67.2455 254.567 64.9313 256.142 62.333 257.581C56.427 260.85 50.1138 262.802 45.4454 262.802C43.047 262.802 41.3136 262.276 40.4321 261.28C39.937 260.722 39.731 260.045 39.8029 259.21C40.0006 256.905 42.3625 253.734 46.1209 250.726C46.338 250.552 46.43 250.264 46.3533 249.996C46.2772 249.728 46.0463 249.532 45.769 249.499C38.5127 248.648 32.9407 246.28 31.3255 243.559C12.8996 250.874 0 267.724 0 287.349C0 313.682 23.2181 335.028 51.8582 335.028H123.762C124.538 335.028 123.937 334.753 122.634 334.329Z" fill="#E84763"/>
<path opacity="0.1" d="M22.4361 287.349C22.4361 271.708 30.6279 257.827 43.2806 249.132C37.2557 248.08 32.7498 245.96 31.3249 243.56C12.8996 250.874 0 267.724 0 287.349C0 313.682 23.2181 335.029 51.8582 335.029H74.2951C45.6549 335.029 22.4361 313.682 22.4361 287.349Z" fill="black"/>
<path d="M109.176 241.959C109.176 237.219 99.4456 233.377 87.4421 233.377C80.0897 233.377 73.5919 234.82 69.6585 237.027C65.7278 234.82 59.2307 233.377 51.8769 233.377C39.8741 233.377 30.1418 237.219 30.1418 241.959C30.1418 245.849 36.7005 249.132 45.6867 250.187C40.1894 254.586 37.672 259.21 39.9121 261.739C42.8803 265.09 53.0689 263.498 62.6656 258.186C65.36 256.694 67.7212 255.069 69.6571 253.427C71.5951 255.069 73.9576 256.694 76.65 258.186C86.2474 263.498 96.4353 265.089 99.4028 261.739C101.644 259.21 99.1269 254.586 93.6275 250.187C102.62 249.132 109.176 245.849 109.176 241.959Z" fill="#72D999"/>
<path d="M353.92 272.664L352.527 265.152C352.049 262.559 349.548 260.846 346.944 261.323L293.2 271.196L327.516 248.257C329.143 247.17 329.896 245.25 329.561 243.427C329.466 242.921 329.288 242.424 329.022 241.952L325.139 235.074C324.508 233.954 323.447 233.134 322.2 232.803C320.954 232.47 319.627 232.651 318.516 233.307L273.876 259.659L282.321 305.25L333.523 314.452C334.798 314.681 336.115 314.385 337.167 313.633C338.22 312.88 338.925 311.733 339.114 310.455L340.271 302.689C340.352 302.155 340.341 301.627 340.247 301.123C339.909 299.297 338.515 297.774 336.606 297.336L296.33 288.099L350.075 278.225C352.68 277.747 354.4 275.258 353.92 272.664Z" fill="#63DD91"/>
<path d="M85.0416 319.396C86.7196 328.456 94.6542 335.031 103.905 335.028L265.671 334.966C271.364 334.964 276.763 332.442 280.404 328.083C284.046 323.725 285.555 317.981 284.522 312.404L273.715 254.058C272.682 248.482 269.214 243.652 264.251 240.873C259.287 238.095 253.342 237.659 248.022 239.679L96.8819 297.095C88.238 300.38 83.1796 309.341 84.857 318.402L85.0416 319.396Z" fill="#EFCB6F"/>
<path d="M256.399 310.71C255.861 307.897 253.138 306.053 250.332 306.592C247.519 307.13 245.675 309.846 246.213 312.659L250.482 334.972L261.04 334.968L256.399 310.71Z" fill="#F4E684"/>
<path d="M228.291 316.859C227.76 314.044 225.049 312.194 222.234 312.724C219.42 313.254 217.568 315.966 218.099 318.78L221.154 334.983L231.707 334.979L228.291 316.859Z" fill="#F4E684"/>
<path d="M200.811 277.803C201.404 280.155 203.516 281.723 205.836 281.723C206.255 281.723 206.682 281.672 207.107 281.565C209.884 280.866 211.568 278.048 210.869 275.27L205.933 255.668L196.172 259.377L200.811 277.803Z" fill="#F4E684"/>
<path d="M173.829 312.34C173.32 309.522 170.626 307.648 167.805 308.157C164.987 308.665 163.114 311.362 163.622 314.181L167.377 335.004L177.915 334.999L173.829 312.34Z" fill="#F4E684"/>
<path d="M121.516 302.648C122.028 305.092 124.183 306.769 126.585 306.769C126.939 306.769 127.297 306.733 127.656 306.657C130.459 306.07 132.254 303.32 131.666 300.518L128.432 285.111L118.618 288.839L121.516 302.648Z" fill="#F4E684"/>
</g>
<defs>
<clipPath id="clip0">
<rect width="354" height="354" fill="white"/>
</clipPath>
</defs>
</svg>
