<svg width="131" height="131" viewBox="0 0 131 131" fill="none" xmlns="http://www.w3.org/2000/svg">
<path d="M35.8168 54.1889C37.9866 47.9267 44.8221 44.6092 51.0842 46.779L89.8246 60.2024C96.0867 62.3722 99.4042 69.2077 97.2344 75.4698L88.659 100.219C86.7064 105.854 80.9115 109.2 75.0548 108.074L69.6913 107.043L62.1098 105.129L54.8356 102.877L48.2565 100.593L43.8436 98.8564L37.184 95.9292L32.8425 93.595C27.6542 90.8056 25.2577 84.6628 27.1863 79.0969L35.8168 54.1889Z" fill="#B36B3F"/>
<path d="M81.262 52.6007L62.6706 85.8664L36.9402 54.1482C35.6067 52.5044 34.5922 50.6258 33.9491 48.6092L33.8229 48.2137C33.559 47.3861 33.3794 46.5339 33.2868 45.6702V45.6702C33.077 43.7111 33.319 41.73 33.9944 39.8791L34.3021 39.0359C35.0912 36.8734 36.3176 34.8967 37.9046 33.2293L38.4467 32.6597C39.2469 31.8189 40.1188 31.0492 41.0524 30.3595L41.8473 29.7722C43.3301 28.6766 45.0048 27.868 46.7849 27.3882V27.3882C48.5716 26.9065 50.4327 26.7645 52.2717 26.9695L53.5811 27.1155C55.3036 27.3075 56.997 27.7048 58.6252 28.299L58.8528 28.382C61.6651 29.4082 64.2581 30.9566 66.4954 32.9456L69.5056 35.6217L73.8108 40.4619C75.366 42.2104 76.7113 44.1348 77.8193 46.196L81.262 52.6007Z" fill="#B36B3F"/>
<path d="M61.9136 45.7387L55.68 83.3338L95.5794 74.6079C97.6472 74.1557 99.6122 73.321 101.373 72.1467L101.719 71.9164C102.441 71.4344 103.114 70.8807 103.725 70.2635V70.2635C105.111 68.8637 106.159 67.1647 106.786 65.297L107.072 64.4461C107.805 62.2639 108.08 59.9541 107.881 57.6608L107.813 56.8775C107.712 55.721 107.511 54.5756 107.212 53.454L106.958 52.499C106.483 50.7176 105.679 49.0406 104.587 47.5547V47.5547C103.492 46.0634 102.126 44.791 100.561 43.8035L99.4472 43.1004C97.9814 42.1755 96.4103 41.4291 94.7673 40.8772L94.5376 40.8001C91.6998 39.8468 88.7074 39.4384 85.718 39.5963L81.6958 39.8088L75.3113 40.904C73.0049 41.2996 70.7527 41.9637 68.6006 42.8828L61.9136 45.7387Z" fill="#B36B3F"/>
<path d="M41.0554 49.7829C42.1537 46.6662 45.5702 45.0098 48.6973 46.0779L92.4016 61.0058C95.5614 62.0851 97.2175 65.5312 96.0863 68.6729L84.6696 100.38C84.0929 101.982 82.8254 103.243 81.2175 103.816V103.816C80.5922 104.039 79.9331 104.151 79.27 104.148L77.076 104.135C76.6811 104.133 76.2875 104.092 75.9009 104.013L70.1513 102.835L63.1219 101.066L56.3752 98.992L50.2721 96.893L46.1773 95.2995L39.9962 92.6182L34.357 89.8596C33.7635 89.5692 33.2227 89.1829 32.7564 88.7162L31.5595 87.5183C31.0376 86.996 30.6176 86.3815 30.3208 85.706L30.2008 85.433C29.5917 84.047 29.5336 82.4801 30.0382 81.0481L41.0554 49.7829Z" fill="#F5E9C5"/>
<path d="M78.245 53.9209L62.1138 82.1251L39.9893 53.496C38.8572 52.031 37.9974 50.3737 37.4512 48.6032L37.3301 48.2108C37.1106 47.4993 36.9618 46.7677 36.8859 46.0268V46.0268C36.7091 44.3007 36.9312 42.5569 37.535 40.9304L37.7613 40.3208C38.4589 38.442 39.5484 36.7338 40.957 35.3105L41.3667 34.8965C42.0625 34.1935 42.8204 33.5552 43.6312 32.9895L44.2713 32.5428C45.5802 31.6296 47.0531 30.9792 48.6086 30.6275V30.6275C50.1311 30.2834 51.7047 30.2318 53.2461 30.4755L54.4769 30.67C55.9388 30.9011 57.3685 31.304 58.7363 31.8704L59.0138 31.9853C61.4191 32.9813 63.6227 34.409 65.5163 36.1983L68.153 38.6897L71.6842 42.8698C73.133 44.5848 74.385 46.4574 75.4169 48.4526L78.245 53.9209Z" fill="#F5E9C5"/>
<path d="M61.6115 50.5609L57.5479 83.1607L93.5414 72.7077C95.3683 72.1771 97.0908 71.3296 98.6304 70.2037L98.9973 69.9354C99.6074 69.4893 100.173 68.9849 100.687 68.4294V68.4294C101.905 67.1121 102.806 65.5327 103.319 63.814L103.484 63.2613C104.073 61.2906 104.227 59.2179 103.935 57.188L103.86 56.6675C103.718 55.6791 103.484 54.7068 103.162 53.7634L102.921 53.0599C102.395 51.5197 101.568 50.102 100.489 48.8888V48.8888C99.4521 47.7221 98.2009 46.7665 96.8031 46.0733L95.6015 45.4773C94.2639 44.8139 92.8526 44.3098 91.3963 43.9751L91.0385 43.8928C88.4462 43.297 85.7655 43.1706 83.1221 43.5194L79.3604 44.0158L73.6534 45.4146C71.533 45.9344 69.4738 46.6844 67.5122 47.6516L61.6115 50.5609Z" fill="#F5E9C5"/>
<circle cx="48.5398" cy="64.5399" r="4.5" transform="rotate(0.510039 48.5398 64.5399)" fill="black"/>
<circle cx="82.5398" cy="75.5399" r="4.5" transform="rotate(0.510039 82.5398 75.5399)" fill="black"/>
<path d="M70.7821 73.3375C71.1561 72.5983 70.86 71.6959 70.1207 71.3219C69.3815 70.948 68.4791 71.2441 68.1052 71.9833L70.7821 73.3375ZM63.5905 70.3918C63.7637 69.5817 63.2475 68.7845 62.4373 68.6113C61.6272 68.4381 60.8301 68.9544 60.6568 69.7645L63.5905 70.3918ZM68.1052 71.9833L67.4207 73.3362L70.0977 74.6905L70.7821 73.3375L68.1052 71.9833ZM63.2671 71.904L63.5905 70.3918L60.6568 69.7645L60.3335 71.2766L63.2671 71.904ZM63.8694 73.9247C63.3375 73.3977 63.1106 72.6362 63.2671 71.904L60.3335 71.2766C59.9631 73.0083 60.4999 74.8093 61.7578 76.0557L63.8694 73.9247ZM67.4207 73.3362C67.0637 74.042 66.3485 74.5105 65.5514 74.5572L65.7268 77.552C67.5828 77.4433 69.255 76.3563 70.0977 74.6905L67.4207 73.3362ZM65.5514 74.5572C64.9255 74.5938 64.3106 74.362 63.8694 73.9247L61.7578 76.0557C62.8082 77.0966 64.2562 77.6382 65.7268 77.552L65.5514 74.5572Z" fill="black"/>
</svg>
