<svg width="90" height="96" viewBox="0 0 90 96" fill="none" xmlns="http://www.w3.org/2000/svg">
<path d="M14.477 58.1882C12.0939 52.0041 15.1752 45.0589 21.3593 42.6758L59.6169 27.9328C65.801 25.5497 72.7462 28.631 75.1293 34.8151L84.5478 59.2558C86.6924 64.8208 84.4245 71.1163 79.2237 74.0353L74.4608 76.7084L67.4338 80.1383L60.4236 83.1119L53.9238 85.6123L49.4317 87.1328L42.4552 89.1937L37.6322 90.212C31.8687 91.4288 26.0742 88.2824 23.956 82.7858L14.477 58.1882Z" fill="#B36B3F"/>
<path d="M48.1704 27.6505L55.4327 65.0606L15.309 57.4322C13.2295 57.0369 11.2423 56.2563 9.44975 55.1307L9.09824 54.91C8.36254 54.4481 7.67543 53.9129 7.04739 53.3128V53.3128C5.62294 51.9516 4.52953 50.2819 3.85118 48.4321L3.54214 47.5894C2.74958 45.4281 2.41097 43.1267 2.54743 40.8288L2.59404 40.0439C2.66285 38.8851 2.83229 37.7346 3.10044 36.6052L3.32875 35.6436C3.75465 33.8498 4.51228 32.1515 5.56257 30.6362V30.6362C6.61668 29.1154 7.94688 27.806 9.48409 26.776L10.5786 26.0426C12.0184 25.0778 13.5685 24.2886 15.1957 23.6919L15.4232 23.6085C18.2338 22.5778 21.2139 22.0875 24.2065 22.1633L28.233 22.2654L34.6451 23.1851C36.9615 23.5173 39.2311 24.1194 41.4075 24.9792L48.1704 27.6505Z" fill="#B36B3F"/>
<path d="M28.9612 34.8932L48.4579 67.6366L73.3088 35.2246C74.5967 33.5449 75.5593 31.6391 76.1469 29.6057L76.2621 29.2069C76.5033 28.3724 76.6595 27.5156 76.7283 26.6496V26.6496C76.8843 24.6855 76.588 22.7118 75.8621 20.8801L75.5314 20.0457C74.6833 17.9056 73.4032 15.9633 71.7711 14.34L71.2136 13.7856C70.3906 12.967 69.4979 12.2215 68.5457 11.5576L67.7351 10.9924C66.2227 9.93789 64.5265 9.17555 62.7339 8.74466V8.74466C60.9347 8.3122 59.0704 8.22129 57.2377 8.47666L55.9328 8.65848C54.2162 8.89767 52.5344 9.34127 50.9231 9.97982L50.6978 10.0691C47.9147 11.172 45.3652 12.7909 43.1832 14.8405L40.2476 17.5982L36.0768 22.5546C34.5701 24.3451 33.278 26.3057 32.227 28.3965L28.9612 34.8932Z" fill="#B36B3F"/>
<path d="M16.6572 52.1043C15.4661 49.0099 17.0053 45.5218 20.0939 44.3157L61.3555 28.2041C64.4638 26.9903 67.9508 28.5515 69.116 31.6785L80.6728 62.6936C81.5645 65.0866 80.8472 67.7904 78.8853 69.4318L77.5209 70.5733C77.2212 70.824 76.8981 71.0448 76.556 71.2327L71.5854 73.9631L65.2868 77.058L59.0044 79.7435L53.18 82.0033L49.1553 83.3788L42.9053 85.2454L36.6694 86.7946C36.2695 86.894 35.8607 86.9517 35.4494 86.967L34.4034 87.0057C31.8574 87.1 29.5375 85.5674 28.6207 83.1856L16.6572 52.1043Z" fill="#CC9A7C"/>
<path d="M47.1334 30.0247L53.6095 62.1923L17.6649 55.0732C15.8273 54.7093 14.069 54.0184 12.4739 53.0333L12.1174 52.8132C11.4774 52.4179 10.8777 51.9605 10.3271 51.4476V51.4476C9.0421 50.2503 8.04924 48.7735 7.42558 47.1318L7.19545 46.526C6.47559 44.631 6.16886 42.6048 6.29585 40.5833L6.33232 40.0029C6.39495 39.006 6.54814 38.017 6.79001 37.0483L6.97984 36.2881C7.37075 34.7224 8.06207 33.2484 9.01539 31.9479V31.9479C9.94669 30.6775 11.1109 29.596 12.4462 28.7609L13.5211 28.0887C14.7887 27.2959 16.1456 26.6553 17.5636 26.1801L17.8578 26.0815C20.3546 25.2448 22.9839 24.8703 25.617 24.9762L29.2921 25.1241L34.8219 25.972C37.0343 26.3113 39.2024 26.8971 41.2857 27.7186L47.1334 30.0247Z" fill="#CC9A7C"/>
<path d="M30.9611 36.9756L47.029 65.6301L69.8038 35.8626C70.9598 34.3517 71.8437 32.6476 72.4152 30.8279L72.5514 30.3943C72.7779 29.6732 72.9342 28.9315 73.0182 28.1796V28.1796C73.2172 26.3966 73.0054 24.5907 72.3993 22.9025L72.2043 22.3595C71.5093 20.4238 70.4035 18.6639 68.9643 17.2029L68.5954 16.8283C67.8946 16.1169 67.1296 15.4729 66.3103 14.9047L65.6993 14.4811C64.3617 13.5536 62.8552 12.9026 61.2672 12.5659V12.5659C59.7399 12.2421 58.1658 12.215 56.6293 12.4861L55.3084 12.7192C53.838 12.9787 52.4029 13.41 51.0319 14.0045L50.695 14.1506C48.2547 15.2087 46.0217 16.6972 44.1005 18.5462L41.3668 21.1774L37.6023 25.6891C36.2036 27.3653 34.9908 29.1908 33.9855 31.133L30.9611 36.9756Z" fill="#CC9A7C"/>
<line x1="60.2515" y1="48.686" x2="65.6164" y2="42.1998" stroke="black" stroke-width="3" stroke-linecap="round" stroke-linejoin="round"/>
<line x1="60.7705" y1="48.7719" x2="68.2215" y2="49.1192" stroke="black" stroke-width="3" stroke-linecap="round" stroke-linejoin="round"/>
<line x1="35.7099" y1="56.1539" x2="30.0576" y2="62.3912" stroke="black" stroke-width="3" stroke-linecap="round" stroke-linejoin="round"/>
<line x1="35.1955" y1="56.0446" x2="27.7678" y2="55.3612" stroke="black" stroke-width="3" stroke-linecap="round" stroke-linejoin="round"/>
<path d="M55.6246 56.2627L54.9483 57.6015L54.9483 57.6015L55.6246 56.2627ZM55.8073 58.0355C56.5467 58.4091 57.449 58.1125 57.8225 57.3731C58.1961 56.6336 57.8995 55.7314 57.16 55.3578L55.8073 58.0355ZM44.6602 60.8448C44.5267 61.6624 45.0812 62.4335 45.8988 62.567C46.7164 62.7006 47.4874 62.1461 47.621 61.3285L44.6602 60.8448ZM54.9483 57.6015L55.8073 58.0355L57.16 55.3578L56.301 54.9238L54.9483 57.6015ZM47.621 61.3285C48.1763 57.9292 51.8739 56.0484 54.9483 57.6015L56.301 54.9238C51.4169 52.4564 45.5424 55.4444 44.6602 60.8448L47.621 61.3285Z" fill="black"/>
<line x1="18.3632" y1="43.9532" x2="23.2407" y2="37.171" stroke="#B36B3F" stroke-width="1.5" stroke-linecap="round"/>
<line x1="21.3834" y1="45.9501" x2="26.2376" y2="39.4679" stroke="#B36B3F" stroke-width="1.5" stroke-linecap="round"/>
<line x1="19.9782" y1="37.4202" x2="27.3821" y2="42.9503" stroke="#B36B3F" stroke-width="1.5" stroke-linecap="round"/>
<line x1="18.0498" y1="40.4673" x2="25.3826" y2="45.9502" stroke="#B36B3F" stroke-width="1.5" stroke-linecap="round"/>
</svg>
